<?xml version="1.0" encoding="UTF-8" ?>
<!DOCTYPE svg PUBLIC "-//W3C//DTD SVG 1.1//EN" "http://www.w3.org/Graphics/SVG/1.1/DTD/svg11.dtd">
<svg width="16.000000pt" height="16.000000pt" viewBox="0 0 341 120" version="1.1" xmlns="http://www.w3.org/2000/svg">
<g id="#fefefeff">
</g>
<g id="#231917ff">
<path fill="#231917" opacity="1.00" d=" M 4.59 1.94 C 9.90 2.47 14.92 4.46 19.07 7.81 C 19.62 5.88 20.19 3.97 20.77 2.05 C 23.94 2.05 27.11 2.05 30.28 2.07 C 28.71 7.14 26.80 12.10 24.46 16.87 C 25.36 30.89 24.59 44.98 24.87 59.02 C 25.23 64.73 22.83 70.70 18.09 74.06 C 14.14 76.80 9.32 77.83 4.62 78.42 C 4.56 76.14 4.52 73.87 4.48 71.59 C 9.17 70.30 14.15 67.69 15.46 62.59 C 16.17 58.44 15.66 54.19 15.79 50.01 C 11.31 52.93 6.70 55.69 1.75 57.77 C 1.72 55.68 1.70 53.59 1.68 51.50 C 6.78 48.01 11.69 44.18 15.75 39.48 C 15.82 35.28 15.82 31.08 15.74 26.89 C 11.37 29.77 6.65 32.11 1.73 33.90 C 1.72 31.92 1.71 29.94 1.71 27.95 C 6.66 24.75 11.63 21.24 14.77 16.12 C 12.32 12.47 8.66 9.84 4.48 8.51 C 4.52 6.32 4.55 4.13 4.59 1.94 Z" />
<path fill="#231917" opacity="1.00" d=" M 34.20 2.00 C 50.81 1.97 67.43 1.99 84.05 2.17 C 84.06 4.04 84.06 5.90 84.06 7.76 C 81.95 7.77 79.84 7.77 77.74 7.79 C 78.02 27.44 75.74 48.46 85.30 66.48 C 87.56 69.99 86.50 74.29 86.66 78.21 C 78.49 69.85 71.63 59.61 70.01 47.80 C 67.14 34.62 68.65 21.11 67.86 7.77 C 65.25 7.76 62.65 7.77 60.04 7.78 C 60.07 27.63 60.00 47.48 60.08 67.33 C 61.67 66.62 63.27 65.93 64.86 65.23 C 64.41 61.65 63.62 58.14 62.86 54.63 C 64.88 54.62 66.91 54.61 68.93 54.61 C 70.73 62.48 72.92 70.25 74.53 78.16 C 72.13 78.15 69.73 78.16 67.34 78.17 C 66.86 76.44 66.42 74.71 65.99 72.97 C 62.03 74.71 58.08 76.49 54.03 78.02 C 52.32 78.93 50.94 77.17 49.65 76.30 C 49.69 53.47 49.65 30.63 49.67 7.80 C 47.84 7.78 46.00 7.77 44.17 7.75 C 43.77 21.79 44.48 35.83 43.60 49.85 C 42.81 60.83 37.98 72.10 28.43 78.19 C 28.51 75.38 27.92 72.43 28.79 69.71 C 32.80 62.87 33.72 54.77 34.16 47.00 C 34.23 32.00 34.17 17.00 34.20 2.00 Z" />
<path fill="#231917" opacity="1.00" d=" M 93.88 2.02 C 99.25 2.36 104.27 4.54 108.44 7.88 C 109.02 5.97 109.54 4.04 110.01 2.10 C 113.19 2.03 116.37 2.05 119.56 2.07 C 118.15 7.21 116.07 12.13 113.72 16.91 C 114.77 29.24 113.93 41.66 114.20 54.02 C 114.28 59.50 114.58 65.50 111.23 70.19 C 107.39 75.81 100.31 77.75 93.88 78.38 C 93.87 76.12 93.85 73.86 93.84 71.60 C 98.13 70.27 102.85 68.16 104.41 63.56 C 105.63 59.18 104.82 54.55 105.06 50.06 C 100.64 52.91 96.10 55.59 91.30 57.75 C 91.28 55.62 91.12 53.48 91.39 51.37 C 96.00 47.70 101.22 44.54 104.73 39.69 C 105.42 35.51 104.93 31.22 104.94 26.99 C 100.66 29.77 96.06 32.00 91.33 33.88 C 91.28 31.85 91.26 29.81 91.25 27.78 C 95.96 24.86 100.49 21.41 103.72 16.85 C 102.86 12.23 97.70 10.21 93.84 8.49 C 93.86 6.33 93.87 4.18 93.88 2.02 Z" />
<path fill="#231917" opacity="1.00" d=" M 122.71 1.98 C 139.10 2.03 155.48 1.98 171.86 2.01 C 171.81 12.70 171.89 23.39 171.84 34.09 C 171.93 37.88 170.39 41.98 166.89 43.84 C 162.49 46.22 157.29 45.06 152.52 45.33 C 152.53 48.29 152.53 51.24 152.56 54.20 C 159.21 54.19 165.86 54.19 172.51 54.20 C 172.51 56.34 172.51 58.47 172.51 60.61 C 165.85 60.60 159.19 60.61 152.54 60.60 C 152.54 64.51 152.52 68.42 152.55 72.33 C 160.27 72.34 167.99 72.32 175.71 72.34 C 175.69 74.31 175.67 76.28 175.64 78.26 C 156.35 78.26 137.05 78.25 117.75 78.27 C 117.74 76.29 117.74 74.31 117.73 72.34 C 125.74 72.33 133.75 72.33 141.76 72.33 C 141.79 68.42 141.79 64.50 141.75 60.59 C 135.11 60.61 128.47 60.65 121.83 60.55 C 121.84 58.45 121.85 56.35 121.84 54.25 C 128.46 54.14 135.08 54.21 141.70 54.21 C 141.78 51.25 141.79 48.30 141.80 45.34 C 135.44 45.31 129.08 45.33 122.73 45.33 C 122.69 30.88 122.73 16.43 122.71 1.98 M 131.15 8.69 C 131.14 12.51 131.14 16.33 131.15 20.15 C 134.70 20.14 138.24 20.15 141.79 20.13 C 141.78 16.32 141.79 12.50 141.77 8.68 C 138.23 8.70 134.69 8.69 131.15 8.69 M 152.54 8.69 C 152.53 12.51 152.55 16.33 152.53 20.15 C 156.08 20.14 159.63 20.20 163.18 19.96 C 163.15 16.21 163.14 12.45 163.17 8.70 C 159.62 8.69 156.08 8.69 152.54 8.69 M 131.14 27.25 C 131.15 31.06 131.15 34.88 131.14 38.70 C 134.69 38.71 138.24 38.71 141.79 38.70 C 141.78 34.88 141.78 31.07 141.78 27.26 C 138.23 27.22 134.68 27.24 131.14 27.25 M 152.53 27.23 C 152.54 31.06 152.53 34.90 152.54 38.73 C 155.07 38.64 157.69 38.95 160.15 38.22 C 164.26 36.27 162.90 30.95 163.20 27.32 C 159.65 27.21 156.09 27.24 152.53 27.23 Z" />
<path fill="#231917" opacity="1.00" d=" M 249.10 92.16 C 254.20 88.70 260.76 88.81 266.60 89.86 C 266.46 90.81 266.17 92.72 266.02 93.67 C 262.25 93.59 258.10 92.57 254.61 94.47 C 247.24 98.32 247.68 111.41 255.75 114.18 C 259.11 115.07 262.62 114.53 266.04 114.44 C 266.11 115.37 266.25 117.21 266.32 118.14 C 260.52 119.32 254.03 119.44 248.84 116.22 C 240.80 110.90 241.28 97.46 249.10 92.16 Z" />
<path fill="#231917" opacity="1.00" d=" M 281.43 89.61 C 287.75 88.02 295.54 90.59 298.13 96.95 C 300.64 103.78 299.58 113.11 292.79 117.09 C 286.76 120.09 278.28 119.70 273.80 114.19 C 267.47 106.34 270.59 91.50 281.43 89.61 M 282.46 93.52 C 279.50 94.65 277.56 97.81 277.30 100.91 C 276.94 105.04 276.75 109.94 280.05 113.02 C 281.44 114.76 283.82 114.96 285.88 114.82 C 289.81 114.78 292.44 110.71 292.69 107.13 C 293.00 103.20 293.26 98.63 290.38 95.51 C 288.59 93.01 285.18 92.90 282.46 93.52 Z" />
<path fill="#231917" opacity="1.00" d=" M 1.70 90.15 C 3.56 90.15 5.42 90.16 7.27 90.17 C 7.27 93.93 7.26 97.69 7.28 101.45 C 11.41 101.44 15.55 101.44 19.68 101.44 C 19.69 97.68 19.69 93.93 19.66 90.17 C 21.52 90.20 23.39 90.18 25.25 90.12 C 25.24 99.49 25.25 108.86 25.25 118.24 C 23.39 118.14 21.53 118.02 19.67 117.88 C 19.69 114.15 19.68 110.43 19.68 106.71 C 15.55 106.72 11.42 106.73 7.28 106.71 C 7.26 110.52 7.28 114.34 7.26 118.15 C 5.41 118.15 3.56 118.14 1.70 118.14 C 1.71 108.81 1.70 99.48 1.70 90.15 Z" />
<path fill="#231917" opacity="1.00" d=" M 31.45 89.88 C 33.22 89.87 34.99 89.87 36.76 89.86 C 36.87 95.57 36.72 101.28 36.82 106.99 C 36.98 109.44 37.08 112.30 39.09 114.03 C 41.61 115.76 45.38 115.78 47.76 113.80 C 49.72 112.12 49.74 109.39 49.80 107.03 C 49.85 101.43 49.81 95.83 49.78 90.23 C 51.63 90.07 53.48 89.91 55.33 89.78 C 55.36 95.52 55.42 101.26 55.35 107.01 C 55.40 111.10 53.49 115.59 49.59 117.34 C 45.32 119.04 40.35 118.98 36.16 117.09 C 33.48 115.31 31.62 112.24 31.53 108.99 C 31.26 102.63 31.46 96.25 31.45 89.88 Z" />
<path fill="#231917" opacity="1.00" d=" M 62.00 98.96 C 61.75 95.89 61.98 92.80 62.30 89.74 C 64.02 89.91 65.75 90.09 67.47 90.27 C 67.39 97.79 67.45 105.32 67.44 112.85 C 72.48 112.86 77.53 112.86 82.57 112.86 C 82.58 114.62 82.58 116.38 82.59 118.15 C 75.79 118.17 69.00 118.15 62.21 118.15 C 61.39 111.76 62.49 105.36 62.00 98.96 Z" />
<path fill="#231917" opacity="1.00" d=" M 89.32 90.13 C 91.09 90.12 92.86 90.12 94.63 90.12 C 94.67 99.46 94.69 108.81 94.62 118.16 C 92.86 118.15 91.10 118.15 89.34 118.15 C 89.28 108.81 89.31 99.47 89.32 90.13 Z" />
<path fill="#231917" opacity="1.00" d=" M 100.62 90.15 C 106.14 90.33 111.73 89.67 117.21 90.57 C 123.01 92.26 123.88 100.12 121.09 104.67 C 117.08 109.08 110.55 107.50 105.29 107.80 C 105.30 111.24 105.30 114.68 105.28 118.13 C 103.73 118.14 102.18 118.14 100.63 118.16 C 100.61 108.83 100.64 99.49 100.62 90.15 M 105.30 93.13 C 105.28 97.02 105.29 100.91 105.29 104.80 C 108.73 104.57 112.51 105.48 115.70 103.87 C 118.49 102.35 118.08 98.72 117.66 96.08 C 115.55 91.33 109.30 93.72 105.30 93.13 Z" />
<path fill="#231917" opacity="1.00" d=" M 128.49 89.87 C 130.22 89.87 131.95 89.87 133.69 89.88 C 133.82 95.58 133.68 101.28 133.74 106.99 C 133.74 109.66 134.47 112.60 136.66 114.33 C 139.01 115.65 141.99 115.62 144.34 114.31 C 146.52 112.61 147.04 109.62 147.09 107.01 C 147.17 101.38 147.06 95.74 147.12 90.11 C 148.87 90.10 150.62 90.09 152.38 90.08 C 152.07 97.36 153.17 104.78 151.55 111.94 C 149.57 118.28 141.56 119.51 135.94 118.00 C 131.24 117.25 128.67 112.37 128.56 107.98 C 128.32 101.95 128.50 95.90 128.49 89.87 Z" />
<path fill="#231917" opacity="1.00" d=" M 188.51 107.06 C 188.42 101.33 188.48 95.60 188.51 89.87 C 190.24 89.87 191.97 89.86 193.70 89.86 C 193.82 95.58 193.70 101.30 193.75 107.02 C 193.73 109.69 194.50 112.59 196.68 114.32 C 199.01 115.70 202.01 115.56 204.36 114.31 C 206.49 112.59 207.04 109.64 207.10 107.05 C 207.20 101.32 207.03 95.59 207.19 89.87 C 208.91 89.87 210.63 89.86 212.36 89.86 C 212.36 95.93 212.54 102.01 212.28 108.08 C 212.14 111.71 210.55 115.50 207.13 117.16 C 202.92 119.00 197.90 119.06 193.68 117.22 C 189.97 115.37 188.59 110.94 188.51 107.06 Z" />
<path fill="#231917" opacity="1.00" d=" M 217.69 90.17 C 219.55 90.15 221.41 90.15 223.27 90.15 C 223.24 99.48 223.28 108.81 223.25 118.15 C 221.40 118.14 219.55 118.14 217.70 118.14 C 217.67 108.82 217.70 99.49 217.69 90.17 Z" />
<path fill="#231917" opacity="1.00" d=" M 304.46 118.54 C 304.95 108.88 306.10 99.27 306.86 89.64 C 309.43 89.63 312.00 89.63 314.58 89.64 C 316.91 97.21 318.99 104.85 321.24 112.45 C 323.42 104.84 325.53 97.21 327.90 89.65 C 330.48 89.64 333.07 89.64 335.66 89.64 C 336.46 99.26 337.50 108.87 337.82 118.53 C 336.04 118.52 334.26 118.52 332.48 118.52 C 331.92 110.10 331.55 101.67 331.28 93.24 C 328.41 101.46 326.20 109.89 323.51 118.17 C 321.99 118.15 320.47 118.13 318.96 118.11 C 316.28 109.81 313.80 101.45 311.37 93.08 C 310.41 101.51 310.51 110.02 310.10 118.49 C 308.22 118.52 306.34 118.53 304.46 118.54 Z" />
<path fill="#231917" opacity="1.00" d=" M 158.96 118.14 C 159.06 108.68 158.79 99.23 159.11 89.78 C 160.82 89.93 162.53 90.08 164.24 90.24 C 164.22 93.98 164.23 97.72 164.24 101.46 C 168.47 101.44 172.70 101.44 176.93 101.45 C 176.91 97.56 176.90 93.66 177.12 89.77 C 178.81 89.92 180.51 90.07 182.20 90.22 C 182.19 99.53 182.22 108.84 182.19 118.16 C 180.43 118.16 178.68 118.16 176.94 118.15 C 176.92 114.34 176.93 110.53 176.93 106.72 C 172.70 106.73 168.47 106.72 164.24 106.71 C 164.24 110.53 164.23 114.35 164.22 118.17 C 162.46 118.16 160.71 118.15 158.96 118.14 Z" />
<path fill="#231917" opacity="1.00" d=" M 231.58 112.84 C 232.23 112.50 233.55 111.81 234.20 111.47 C 235.66 112.32 237.78 113.13 237.70 115.19 C 237.80 117.84 234.20 119.56 232.23 117.73 C 230.47 116.65 231.21 114.45 231.58 112.84 Z" />
</g>
<g id="#0b5aa8ff">
<path fill="#0b5aa8" opacity="1.00" d=" M 195.57 1.92 C 199.40 1.88 203.23 1.88 207.06 1.92 C 207.58 3.92 208.11 5.91 208.63 7.92 C 214.65 7.96 220.67 8.05 226.69 7.86 C 227.38 5.87 228.05 3.88 228.72 1.89 C 232.49 1.88 236.26 1.88 240.04 1.89 C 239.38 3.89 238.72 5.89 238.09 7.90 C 243.44 8.00 248.80 7.91 254.16 8.02 C 254.17 10.16 254.16 12.29 254.17 14.43 C 246.83 14.44 239.49 14.45 232.15 14.42 C 232.35 20.38 231.56 26.34 232.16 32.29 C 240.36 32.25 248.56 32.30 256.75 32.26 C 256.75 34.43 256.76 36.59 256.76 38.76 C 230.71 38.69 204.65 38.81 178.60 38.71 C 178.60 36.57 178.59 34.44 178.59 32.31 C 186.80 32.25 195.01 32.30 203.22 32.25 C 203.21 26.32 203.22 20.39 203.23 14.45 C 195.96 14.43 188.69 14.45 181.43 14.44 C 181.42 12.27 181.41 10.11 181.41 7.95 C 186.73 7.95 192.06 7.98 197.38 7.94 C 196.75 5.94 196.16 3.93 195.57 1.92 M 213.08 14.44 C 213.10 20.38 213.09 26.32 213.09 32.26 C 216.25 32.27 219.40 32.28 222.56 32.27 C 222.56 26.34 222.55 20.40 222.57 14.47 C 219.40 14.44 216.24 14.44 213.08 14.44 Z" />
<path fill="#0b5aa8" opacity="1.00" d=" M 294.52 1.92 C 298.19 1.89 301.87 1.89 305.56 1.89 C 305.57 3.38 305.59 4.87 305.62 6.36 C 316.36 6.39 327.11 6.35 337.86 6.37 C 337.84 8.57 337.89 10.78 337.65 12.97 C 326.98 13.23 316.28 13.33 305.62 12.85 C 305.59 14.39 305.57 15.93 305.55 17.48 C 314.67 17.48 323.79 17.47 332.90 17.48 C 332.82 23.63 333.15 29.80 332.75 35.94 C 332.49 39.47 330.14 42.80 326.40 43.18 C 327.04 43.51 327.68 43.83 328.33 44.14 C 329.87 43.91 331.42 43.71 332.98 43.55 C 335.13 47.93 337.25 52.42 337.90 57.32 C 335.08 57.34 332.25 57.34 329.43 57.36 C 329.10 55.89 328.77 54.42 328.46 52.94 C 319.78 54.94 310.84 54.72 301.99 54.75 C 288.75 54.73 275.50 54.72 262.25 54.74 C 262.25 52.65 262.25 50.56 262.25 48.46 C 273.01 48.46 283.77 48.48 294.53 48.46 C 294.53 46.87 294.53 45.29 294.54 43.71 C 285.55 43.71 276.56 43.74 267.57 43.69 C 267.56 34.96 267.57 26.23 267.57 17.49 C 276.58 17.43 285.59 17.51 294.60 17.47 C 294.55 15.93 294.51 14.39 294.47 12.85 C 283.80 13.08 273.15 12.99 262.48 12.87 C 262.47 10.71 262.46 8.54 262.46 6.38 C 273.15 6.35 283.85 6.37 294.55 6.36 C 294.53 4.88 294.52 3.40 294.52 1.92 M 277.63 27.65 C 283.26 27.83 288.90 27.73 294.53 27.74 C 294.53 26.09 294.53 24.44 294.53 22.79 C 289.11 22.80 283.69 22.82 278.27 22.76 C 278.05 24.39 277.83 26.02 277.63 27.65 M 305.59 22.80 C 305.58 24.45 305.57 26.09 305.56 27.74 C 311.21 27.76 316.86 27.76 322.51 27.72 C 322.50 26.08 322.49 24.43 322.49 22.79 C 316.85 22.78 311.22 22.79 305.59 22.80 M 277.75 33.24 C 277.77 34.78 277.79 36.33 277.81 37.87 C 283.39 38.01 288.98 37.99 294.57 37.93 C 294.56 36.34 294.55 34.74 294.54 33.14 C 288.94 33.32 283.34 32.85 277.75 33.24 M 305.58 33.15 C 305.58 34.74 305.57 36.33 305.57 37.93 C 311.14 37.43 317.30 39.33 322.42 36.54 C 322.44 35.41 322.46 34.29 322.50 33.17 C 316.86 33.15 311.22 33.16 305.58 33.15 M 305.57 43.72 C 305.57 45.30 305.58 46.89 305.58 48.47 C 312.55 48.51 319.54 48.31 326.44 47.18 C 325.81 45.97 325.19 44.76 324.59 43.55 C 318.25 43.87 311.91 43.64 305.57 43.72 Z" />
<path fill="#0b5aa8" opacity="1.00" d=" M 184.97 17.52 C 188.12 17.48 191.26 17.47 194.41 17.48 C 195.21 21.37 196.24 25.22 197.73 28.90 C 194.70 28.87 191.68 28.87 188.66 28.89 C 187.11 25.21 185.89 21.40 184.97 17.52 Z" />
<path fill="#0b5aa8" opacity="1.00" d=" M 241.24 17.47 C 244.31 17.47 247.38 17.47 250.45 17.55 C 249.60 21.37 248.70 25.30 246.65 28.68 C 243.73 29.11 240.78 28.86 237.85 28.85 C 239.31 25.16 240.49 21.37 241.24 17.47 Z" />
<path fill="#0b5aa8" opacity="1.00" d=" M 187.48 44.45 C 207.64 44.56 227.81 44.28 247.96 44.57 C 248.40 51.36 248.02 58.18 248.16 64.99 C 247.93 68.49 248.26 72.75 245.28 75.25 C 242.55 77.87 238.57 78.29 234.96 78.28 C 219.14 78.27 203.32 78.26 187.50 78.28 C 187.41 67.00 187.48 55.72 187.48 44.45 M 197.86 50.83 C 197.86 53.28 197.87 55.72 197.89 58.17 C 211.19 58.19 224.49 58.17 237.79 58.17 C 237.77 55.71 237.73 53.26 237.69 50.81 C 224.41 50.89 211.13 50.83 197.86 50.83 M 197.89 64.25 C 197.88 66.65 197.86 69.05 197.86 71.45 C 209.91 71.36 221.96 71.59 234.01 71.33 C 237.97 71.50 237.81 67.03 237.91 64.27 C 224.57 64.19 211.23 64.22 197.89 64.25 Z" />
<path fill="#0b5aa8" opacity="1.00" d=" M 279.87 60.42 C 283.08 60.41 286.30 60.42 289.51 60.43 C 289.57 63.59 289.20 66.81 289.85 69.93 C 291.39 72.94 295.22 72.22 298.00 72.35 C 302.96 72.15 307.98 72.69 312.91 72.00 C 315.51 71.50 315.59 68.51 316.07 66.46 C 318.52 66.44 320.97 66.43 323.43 66.44 C 323.41 70.50 323.25 75.97 318.56 77.45 C 311.87 79.14 304.82 77.86 297.99 78.27 C 292.21 78.04 284.61 79.67 280.88 73.98 C 279.19 69.68 279.99 64.92 279.87 60.42 Z" />
<path fill="#0b5aa8" opacity="1.00" d=" M 298.05 60.43 C 301.07 60.40 304.10 60.40 307.13 60.45 C 308.19 63.24 309.33 65.99 310.41 68.78 C 307.15 68.82 303.90 68.82 300.65 68.81 C 299.83 66.00 298.93 63.22 298.05 60.43 Z" />
<path fill="#0b5aa8" opacity="1.00" d=" M 327.40 60.63 C 330.30 60.63 333.20 60.62 336.11 60.61 C 336.07 66.59 336.38 72.59 335.79 78.55 C 332.63 77.37 329.00 75.83 327.94 72.28 C 326.92 68.50 327.47 64.51 327.40 60.63 Z" />
<path fill="#0b5aa8" opacity="1.00" d=" M 266.36 78.24 C 266.30 72.37 266.31 66.49 266.36 60.62 C 269.30 60.63 272.24 60.64 275.18 60.64 C 275.03 64.63 275.65 68.75 274.49 72.64 C 273.25 76.04 269.69 77.64 266.36 78.24 Z" />
</g>
</svg>
